<?xml version="1.0" encoding="UTF-8"?>
<svg width="60px" height="60px" viewBox="0 0 60 60" version="1.1" xmlns="http://www.w3.org/2000/svg" xmlns:xlink="http://www.w3.org/1999/xlink">
    <!-- Generator: Sketch 55 (78076) - https://sketchapp.com -->
    <title>编组 9备份 3</title>
    <desc>Created with Sketch.</desc>
    <g id="发布作品小程序" stroke="none" stroke-width="1" fill="none" fill-rule="evenodd">
        <g id="作品页-发布" transform="translate(-63.000000, -1399.000000)" fill="#000000" fill-rule="nonzero">
            <g id="设为仅自己可见" transform="translate(63.000000, 1399.000000)">
                <g id="编组-7" transform="translate(7.000000, 6.000000)">
                    <path d="M4,2.5 L13,2.5 C14.9329966,2.5 16.5,4.06700338 16.5,6 L16.5,42 C16.5,43.9329966 14.9329966,45.5 13,45.5 L4,45.5 C2.06700338,45.5 0.5,43.9329966 0.5,42 L0.5,6 C0.5,4.06700338 2.06700338,2.5 4,2.5 Z M4,5.5 C3.72385763,5.5 3.5,5.72385763 3.5,6 L3.5,42 C3.5,42.2761424 3.72385763,42.5 4,42.5 L13,42.5 C13.2761424,42.5 13.5,42.2761424 13.5,42 L13.5,6 C13.5,5.72385763 13.2761424,5.5 13,5.5 L4,5.5 Z" id="矩形备份-3"></path>
                    <path d="M33,2.5 L42,2.5 C43.9329966,2.5 45.5,4.06700338 45.5,6 L45.5,42 C45.5,43.9329966 43.9329966,45.5 42,45.5 L33,45.5 C31.0670034,45.5 29.5,43.9329966 29.5,42 L29.5,6 C29.5,4.06700338 31.0670034,2.5 33,2.5 Z M33,5.5 C32.7238576,5.5 32.5,5.72385763 32.5,6 L32.5,42 C32.5,42.2761424 32.7238576,42.5 33,42.5 L42,42.5 C42.2761424,42.5 42.5,42.2761424 42.5,42 L42.5,6 C42.5,5.72385763 42.2761424,5.5 42,5.5 L33,5.5 Z" id="矩形备份-3"></path>
                    <path d="M21.5,1.5 L21.5,46.4259669 C21.5,47.254394 22.1715729,47.9259669 23,47.9259669 C23.8284271,47.9259669 24.5,47.254394 24.5,46.4259669 L24.5,1.5 C24.5,0.671572875 23.8284271,-5.52603652e-12 23,0 C22.1715729,-5.52603652e-12 21.5,0.671572875 21.5,1.5 Z" id="路径-4"></path>
                </g>
            </g>
        </g>
    </g>
</svg>