<svg xmlns="http://www.w3.org/2000/svg" xmlns:xlink="http://www.w3.org/1999/xlink" fill="none" version="1.1" width="48" height="48" viewBox="0 0 48 48"><defs><clipPath id="master_svg0_63_9233"><rect x="0" y="0" width="48" height="48" rx="0"/></clipPath></defs><g clip-path="url(#master_svg0_63_9233)"><path d="M34.102467000000004,11C38.566467,11,42.48307,14.2686768,43.652821,18.9177475C43.882629,19.8297749,44,20.7763863,44,21.740783999999998C44,24.657694,43.180382,26.585501,41.064766,29.853189C39.59222,32.123871,37.155067,34.793751,34.099506000000005,37.637539000000004L33.251289,38.418148L32.81633,38.810432C31.760986,39.756054,30.699726,40.668082999999996,29.662136,41.529716L28.670904,42.340958L28.06926,42.82513L27.031672,43.63736C26.73876,43.872604,26.374426,44.000549,25.999014,44C25.627178,44,25.281973,43.881424,24.983124,43.650208L24.455452,43.244091L23.552986,42.529686L23.129863999999998,42.189777C21.794055999999998,41.108742,20.484842,39.995136,19.203398,38.849957C15.5383015,35.573372,12.6139174,32.465759,10.9352331,29.855165C8.82060242,26.590441,8,24.658682,8,21.740783999999998C8,15.794323,12.4679451,11,17.8975334,11C20.422466,11,22.916822,12.0908766,24.759233,14.0038624C25.084961,14.3416224,25.533813,14.5321188,26.002602,14.5315599C26.47139,14.531001100000001,26.919786,14.3394346,27.244713,14.0008984C29.102903,12.0651855,31.540054,11,34.102467000000004,11Z" fill="#FFB894" fill-opacity="1"/><path d="M32.617586,4.0051983721C29.707586,4.088372856,26.93,5.1290934,24.627241,6.965169899999999L24.495863,7.0712173L24.374828,6.9734874C21.969656,5.0677522,19.017241,4,16.001724,4C8.2503448,4,2,10.726735099999999,2,18.940213999999997C2,22.899319,3.0924138,25.478767,5.6589656,29.453468C7.6327586,32.534042,10.8934479,36.008656,14.96,39.657936C16.348616,40.90213,17.767316,42.111988,19.214828,43.286423L20.297932,44.155594L21.112068,44.789799L21.235172,44.883373C22.169508,45.609566,23.317831,46.002434,24.498966,46C25.596031,46.001648,26.666857,45.66288,27.565172,45.029968L28.020346,44.686871L28.988621,43.920628L29.813103,43.254192C31.258898,42.073914,32.67654,40.859222,34.064827,39.611149C38.119999,35.961870000000005,41.366207,32.505970000000005,43.336895,29.458666C45.909657,25.472528,47,22.898279,47,18.940213999999997C47,17.625018,46.839657,16.330615,46.526207,15.079879C44.905174,8.6172228,39.389309,4,32.998276000000004,4L32.617586,4.0051983721ZM32.998276000000004,7.6388831C37.680344,7.6388831,41.788277,11.078147399999999,43.015171,15.969846C43.256207,16.929472,43.379311,17.925486,43.379311,18.940213999999997C43.379311,22.009352,42.519653,24.037769,40.30069,27.475994C38.756207,29.865181,36.200001,32.674398,32.995173,35.666601L32.105516,36.487949L31.649311,36.900703C30.542414,37.895676,29.42931,38.855301,28.341034,39.761902L27.30138,40.615482L26.670345,41.124924L25.582069,41.979542C25.318739,42.191704,25.000368,42.320919,24.666821,42.353142L24.498966,42.361107C24.108965,42.361107,23.746897,42.236343,23.433449,41.993057L22.879999,41.56575L21.933449,40.81406L21.489655,40.456409C20.088593,39.318958,18.715424,38.147236,17.371378999999997,36.942287C13.527242,33.494707,10.46,30.224911,8.6993103,27.478073C6.4813795,24.042969,5.6206896,22.010391,5.6206896,18.940213999999997C5.6206896,12.6834145,10.3068962,7.6388831,16.001724,7.6388831C18.65,7.6388831,21.266207,8.786690700000001,23.19862,10.7995129C23.540262,11.154900099999999,24.01104,11.3553386,24.502729,11.3547502C24.994417,11.354162200000001,25.46472,11.1525979,25.805517,10.7963939C27.754482,8.7596593,30.31069,7.6388831,32.998276000000004,7.6388831Z" fill="#000000" fill-opacity="1"/><path d="M33.22182846,13.79537296C33.44549751,13.43425465,33.81769943,13.16880322,34.2565117,13.057444572C34.6953278,12.946084976,35.1647873,12.9979448318,35.5615692,13.20160866C36.055275,13.45552063,36.7024612,13.91939926,37.333549500000004,14.6293764C38.7288055,16.1977711,39.3555984,18.2652016,38.7964211,20.7506104C38.6061478,21.596044499999998,37.6986847,22.1410542,36.7695427,21.9679222C35.840400700000004,21.794790300000003,35.241428400000004,20.9690781,35.4317017,20.123642C35.777298,18.590403600000002,35.435997,17.4624481,34.6643105,16.5952415C34.4556923,16.3527212,34.210331,16.1383429,33.93555832,15.9585075L33.87330818,15.9233503C33.47661781,15.7196674,33.18511391,15.380924199999999,33.062934875,14.981658C32.940755844,14.5823917,32.9979133606,14.1553135,33.22182846,13.79537296L33.22182846,13.79537296Z" fill="#000000" fill-opacity="1"/></g></svg>